<?xml version="1.0" encoding="UTF-8"?>
<svg width="40px" height="40px" version="1.1" viewBox="0 0 40 40" xmlns="http://www.w3.org/2000/svg">
 <g id="surface1">
  <path d="m0.28516 0.28516h39.43v39.43h-39.43v-39.43z" fill="#fd2d06"/>
  <path d="m5.7148 5.7148h28.57v16h-5.4297v2h5.4297v10.57h-3.4297v-8.8555h-2v8.8555h-10.57v-3.4297h3.4297v1.7148h2v-10.855h-3.7148v2h2v1.7148h-5.4297v1.7148h5.4297v1.7109h-5.7148v5.4297h-5.1406v-5.4297h-5.4297v-1.7109h5.4297v-1.7148h-5.4297v-2h1.7148v-1.4297h-1.7148v-16.285z" fill="#fdf9f8"/>
  <path d="m9.1445 7.4297h19.711v12.57h-12.285v-1.7148h10.574v-5.4297h-5.4297v-1.7109h5.4297v-2h-16v2h5.1406v1.7109h-5.1406v1.7148h5.4258v2h-5.4258v3.4297h-2v-12.57z" fill="#fd2909"/>
  <path d="m9.1445 7.4297h19.711v0.28516h-19.426c0.09375 0.56641 0.1875 1.1328 0.28516 1.7148 0.28125-0.19141 0.56641-0.37891 0.85547-0.57422 0.19141 0.097656 0.37891 0.19141 0.57422 0.28906v2h5.1406v1.7109h-5.1406v1.7148h5.4258v2h-5.4258v3.4297h-2v-12.57z" fill="#ff4023"/>
  <path d="m9.4297 7.7148h19.426c-0.1875 0.94141-0.375 1.8867-0.57031 2.8555h-0.57031c-0.1875 0.19141-0.37891 0.37891-0.57031 0.57422v-2h-16.289v2h-0.28516c-0.09375-0.66016-0.1875-1.3203-0.28516-2-0.57812 0.57812-0.35938 1.7617-0.375 2.5625-0.007812 0.22656-0.011718 0.45703-0.019531 0.69141-0.019531 0.73047-0.035156 1.4609-0.050781 2.1914-0.011719 0.49219-0.023438 0.98828-0.039063 1.4805-0.03125 1.2148-0.058593 2.4297-0.085937 3.6445h-0.28516v-12z" fill="#fd2001"/>
  <path d="m5.7148 30.855h3.4297v3.4297h-3.4297v-3.4297z" fill="#fdfafa"/>
  <path d="m11.145 21.715h5.4258v2h-5.4258v-2z" fill="#ff4b36"/>
  <path d="m21.715 14.57h2v2h-2v-2z" fill="#fd4d38"/>
  <path d="m11.715 22.285h4.2852v0.85938h-4.2852v-0.85938z" fill="#ff2800"/>
  <path d="m21.715 30.855h0.57031v1.1445h1.1445v0.57031h-1.7148v-1.7148z" fill="#ff402c"/>
 </g>
</svg>
