<?xml version="1.0" encoding="UTF-8"?>
<svg width="30px" height="30px" version="1.1" viewBox="0 0 30 30" xmlns="http://www.w3.org/2000/svg">
 <g id="surface1">
  <path d="m0.21484 0.21484h29.57v29.57h-29.57v-29.57z" fill="#fd2d06"/>
  <path d="m4.2852 4.2852h21.43v12h-4.0703v1.5h4.0703v7.9297h-2.5703v-6.6445h-1.5v6.6445h-7.9297v-2.5703h2.5703v1.2852h1.5v-8.1445h-2.7852v1.5h1.5v1.2852h-4.0703v1.2852h4.0703v1.2891h-4.2852v4.0703h-3.8594v-4.0703h-4.0703v-1.2891h4.0703v-1.2852h-4.0703v-1.5h1.2852v-1.0703h-1.2852v-12.215z" fill="#fdf9f8"/>
  <path d="m6.8555 5.5703h14.789v9.4297h-9.2148v-1.2852h7.9258v-4.0703h-4.0703v-1.2891h4.0703v-1.5h-12v1.5h3.8594v1.2891h-3.8594v1.2852h4.0742v1.5h-4.0742v2.5703h-1.5v-9.4297z" fill="#fd2909"/>
  <path d="m6.8555 5.5703h14.789v0.21484h-14.574c0.070313 0.42578 0.14063 0.84766 0.21484 1.2852 0.21094-0.14062 0.42578-0.28125 0.64453-0.42578 0.14062 0.070313 0.28125 0.14062 0.42578 0.21094v1.5h3.8594v1.2891h-3.8594v1.2852h4.0742v1.5h-4.0742v2.5703h-1.5v-9.4297z" fill="#ff4023"/>
  <path d="m7.0703 5.7852h14.574c-0.14453 0.70703-0.28516 1.4141-0.42969 2.1445h-0.42969c-0.14062 0.14062-0.28125 0.28125-0.42969 0.42578v-1.5h-12.211v1.5h-0.21484c-0.070313-0.49219-0.14063-0.98828-0.21484-1.5-0.4375 0.4375-0.26953 1.3242-0.28125 1.9258-0.003906 0.16797-0.011719 0.33984-0.015625 0.51562-0.011719 0.55078-0.027344 1.0977-0.039063 1.6445-0.007812 0.37109-0.019531 0.74219-0.027344 1.1133-0.023437 0.91016-0.042968 1.8203-0.066406 2.7305h-0.21484v-9z" fill="#fd2001"/>
  <path d="m4.2852 23.145h2.5703v2.5703h-2.5703v-2.5703z" fill="#fdfafa"/>
  <path d="m8.3555 16.285h4.0742v1.5h-4.0742v-1.5z" fill="#ff4b36"/>
  <path d="m16.285 10.93h1.5v1.5h-1.5v-1.5z" fill="#fd4d38"/>
  <path d="m8.7852 16.715h3.2148v0.64062h-3.2148v-0.64062z" fill="#ff2800"/>
  <path d="m16.285 23.145h0.42969v0.85547h0.85547v0.42969h-1.2852v-1.2852z" fill="#ff402c"/>
 </g>
</svg>
