<?xml version="1.0" encoding="UTF-8"?>
<svg width="25px" height="25px" version="1.1" viewBox="0 0 25 25" xmlns="http://www.w3.org/2000/svg">
 <g id="surface1">
  <path d="m0.17969 0.17969h24.641v24.641h-24.641v-24.641z" fill="#fd2d06"/>
  <path d="m3.5703 3.5703h17.859v10h-3.3945v1.25h3.3945v6.6094h-2.1445v-5.5352h-1.25v5.5352h-6.6055v-2.1445h2.1406v1.0703h1.25v-6.7852h-2.3203v1.25h1.25v1.0742h-3.3945v1.0703h3.3945v1.0703h-3.5703v3.3945h-3.2148v-3.3945h-3.3945v-1.0703h3.3945v-1.0703h-3.3945v-1.25h1.0742v-0.89453h-1.0742v-10.18z" fill="#fdf9f8"/>
  <path d="m5.7148 4.6445h12.32v7.8555h-7.6797v-1.0703h6.6094v-3.3945h-3.3945v-1.0703h3.3945v-1.25h-10v1.25h3.2148v1.0703h-3.2148v1.0703h3.3906v1.25h-3.3906v2.1445h-1.25v-7.8555z" fill="#fd2a09"/>
  <path d="m5.7148 4.6445h12.32v0.17578h-12.141c0.058594 0.35547 0.11719 0.70703 0.17578 1.0742 0.17969-0.12109 0.35547-0.23828 0.53516-0.35938 0.12109 0.058594 0.23828 0.11719 0.35938 0.17969v1.25h3.2148v1.0703h-3.2148v1.0703h3.3906v1.25h-3.3906v2.1445h-1.25v-7.8555z" fill="#ff4124"/>
  <path d="m5.8945 4.8203h12.141c-0.11719 0.58984-0.23438 1.1797-0.35547 1.7852h-0.35938c-0.11719 0.12109-0.23437 0.23828-0.35547 0.35938v-1.25h-10.18v1.25h-0.17969c-0.058594-0.41406-0.11719-0.82422-0.17578-1.25-0.36328 0.36328-0.22656 1.1016-0.23438 1.6016-0.003906 0.14062-0.007812 0.28516-0.011718 0.43359-0.011719 0.45312-0.023438 0.91016-0.035156 1.3672-0.007813 0.30859-0.015626 0.61719-0.023438 0.92969-0.019531 0.75781-0.035156 1.5156-0.054688 2.2734h-0.17578v-7.5z" fill="#fd2101"/>
  <path d="m3.5703 19.285h2.1445v2.1445h-2.1445v-2.1445z" fill="#fdfafa"/>
  <path d="m6.9648 13.57h3.3906v1.25h-3.3906v-1.25z" fill="#ff4b37"/>
  <path d="m13.57 9.1055h1.25v1.25h-1.25v-1.25z" fill="#fd4e38"/>
  <path d="m7.3203 13.93h2.6797v0.53516h-2.6797v-0.53516z" fill="#ff2900"/>
  <path d="m13.57 19.285h0.35938v0.71484h0.71484v0.35547h-1.0742v-1.0703z" fill="#ff412c"/>
 </g>
</svg>
