<?xml version="1.0" encoding="UTF-8"?>
<svg width="20px" height="20px" version="1.1" viewBox="0 0 20 20" xmlns="http://www.w3.org/2000/svg">
 <g id="surface1">
  <path d="m0.14453 0.14453h19.711v19.711h-19.711v-19.711z" fill="#fd2d06"/>
  <path d="m2.8555 2.8555h14.289v8h-2.7148v1h2.7148v5.2891h-1.7148v-4.4297h-1v4.4297h-5.2852v-1.7148h1.7109v0.85547h1v-5.4297h-1.8555v1h1v0.85938h-2.7148v0.85547h2.7148v0.85938h-2.8555v2.7148h-2.5742v-2.7148h-2.7148v-0.85938h2.7148v-0.85547h-2.7148v-1h0.85938v-0.71484h-0.85938v-8.1445z" fill="#fdf9f8"/>
  <path d="m4.5703 3.7148h9.8594v6.2852h-6.1445v-0.85547h5.2852v-2.7148h-2.7148v-0.85938h2.7148v-1h-8v1h2.5742v0.85938h-2.5742v0.85547h2.7148v1h-2.7148v1.7148h-1v-6.2852z" fill="#fd2909"/>
  <path d="m4.5703 3.7148h9.8594v0.14062h-9.7148c0.046875 0.28516 0.09375 0.56641 0.14062 0.85938 0.14453-0.09375 0.28516-0.1875 0.42969-0.28516 0.09375 0.046874 0.1875 0.09375 0.28516 0.14062v1h2.5742v0.85938h-2.5742v0.85547h2.7148v1h-2.7148v1.7148h-1v-6.2852z" fill="#ff4023"/>
  <path d="m4.7148 3.8555h9.7148c-0.09375 0.47266-0.19141 0.94531-0.28516 1.4297h-0.28906c-0.09375 0.09375-0.1875 0.1875-0.28516 0.28516v-1h-8.1406v1h-0.14453c-0.046875-0.32812-0.09375-0.66016-0.14062-1-0.29297 0.29297-0.17969 0.88281-0.19141 1.2812 0 0.11719-0.003906 0.23047-0.007813 0.34766-0.007812 0.36328-0.015624 0.73047-0.027343 1.0938-0.003907 0.25-0.011719 0.49609-0.015625 0.74219-0.015625 0.60938-0.03125 1.2148-0.046875 1.8203h-0.14062v-6z" fill="#fd2001"/>
  <path d="m2.8555 15.43h1.7148v1.7148h-1.7148v-1.7148z" fill="#fdfafa"/>
  <path d="m5.5703 10.855h2.7148v1h-2.7148v-1z" fill="#ff4b36"/>
  <path d="m10.855 7.2852h1v1h-1v-1z" fill="#fd4d38"/>
  <path d="m5.8555 11.145h2.1445v0.42578h-2.1445v-0.42578z" fill="#ff2800"/>
  <path d="m10.855 15.43h0.28906v0.57031h0.57031v0.28516h-0.85938v-0.85547z" fill="#ff402c"/>
 </g>
</svg>
