<?xml version="1.0" encoding="UTF-8"?>
<svg xmlns="http://www.w3.org/2000/svg" xmlns:xlink="http://www.w3.org/1999/xlink" width="120px" height="25px" viewBox="0 0 120 25" version="1.1">
<g id="surface1">
<path style=" stroke:none;fill-rule:evenodd;fill:rgb(89.411765%,22.352941%,8.235294%);fill-opacity:1;" d="M 0 12.425781 L 0 24.546875 L 24.191406 24.546875 L 24.296875 24.414062 L 24.398438 24.285156 L 24.398438 0.566406 L 24.296875 0.433594 L 24.191406 0.300781 L 0 0.300781 L 0 12.425781 M 21.058594 3.71875 C 21.300781 3.851562 21.300781 3.804688 21.300781 8.582031 C 21.300781 13.546875 21.308594 13.410156 20.992188 13.472656 C 20.90625 13.488281 20.257812 13.503906 19.550781 13.503906 C 18.011719 13.503906 17.9375 13.527344 17.910156 13.984375 C 17.878906 14.617188 17.980469 14.65625 19.660156 14.671875 C 21.207031 14.683594 21.167969 14.675781 21.253906 15.039062 C 21.339844 15.417969 21.3125 20.703125 21.222656 20.929688 C 21.117188 21.191406 21.089844 21.199219 20.253906 21.21875 C 18.992188 21.25 19.042969 21.359375 19.050781 18.578125 C 19.050781 17.402344 19.054688 16.347656 19.050781 16.230469 C 19.046875 15.785156 18.585938 15.5625 18.148438 15.789062 C 17.898438 15.917969 17.898438 15.910156 17.898438 18.433594 C 17.898438 21.011719 17.898438 21.027344 17.613281 21.175781 C 17.488281 21.242188 12 21.242188 11.65625 21.175781 C 11.277344 21.105469 11.234375 20.984375 11.257812 20.054688 C 11.285156 19 11.289062 18.996094 12.59375 19.035156 C 13.421875 19.054688 13.421875 19.058594 13.503906 19.558594 C 13.582031 20.046875 13.683594 20.179688 13.972656 20.179688 C 14.304688 20.179688 14.5 20.089844 14.582031 19.898438 C 14.65625 19.71875 14.679688 14.074219 14.605469 13.804688 C 14.539062 13.558594 14.316406 13.503906 13.390625 13.503906 L 12.550781 13.503906 L 12.46875 13.632812 C 12.246094 13.972656 12.417969 14.65625 12.722656 14.660156 C 13.371094 14.660156 13.5 14.75 13.5 15.1875 C 13.5 15.71875 13.527344 15.710938 11.824219 15.714844 C 10.125 15.714844 10.101562 15.722656 10.101562 16.265625 C 10.101562 16.8125 10.261719 16.867188 11.726562 16.832031 C 13.414062 16.785156 13.621094 16.867188 13.503906 17.511719 C 13.429688 17.90625 13.476562 17.894531 11.886719 17.902344 C 9.953125 17.914062 10.101562 17.765625 10.101562 19.664062 C 10.097656 21.351562 10.226562 21.234375 8.414062 21.234375 C 6.769531 21.234375 6.832031 21.304688 6.855469 19.507812 C 6.878906 17.808594 7.035156 17.953125 5.136719 17.921875 C 3.476562 17.894531 3.5 17.898438 3.5 17.433594 C 3.5 16.835938 3.542969 16.820312 5.230469 16.816406 C 6.660156 16.816406 6.761719 16.792969 6.851562 16.457031 C 7.023438 15.8125 6.863281 15.742188 5.117188 15.714844 C 3.464844 15.683594 3.5 15.695312 3.5 15.191406 C 3.5 14.84375 3.585938 14.730469 3.886719 14.6875 C 4.460938 14.605469 4.457031 14.609375 4.554688 14.382812 C 4.742188 13.960938 4.589844 13.585938 4.210938 13.53125 C 3.417969 13.421875 3.5 13.980469 3.5 8.582031 C 3.5 3.671875 3.496094 3.753906 3.765625 3.699219 C 4.03125 3.648438 20.960938 3.667969 21.058594 3.71875 M 71.886719 4.453125 C 71.976562 4.464844 72.113281 4.464844 72.1875 4.453125 C 72.261719 4.441406 72.191406 4.433594 72.023438 4.433594 C 71.859375 4.433594 71.796875 4.441406 71.886719 4.453125 M 73.988281 4.453125 C 74.078125 4.464844 74.214844 4.464844 74.289062 4.453125 C 74.363281 4.441406 74.289062 4.433594 74.125 4.433594 C 73.960938 4.433594 73.898438 4.441406 73.988281 4.453125 M 76.914062 4.453125 C 76.988281 4.464844 77.101562 4.464844 77.164062 4.453125 C 77.226562 4.441406 77.164062 4.429688 77.023438 4.433594 C 76.886719 4.433594 76.835938 4.441406 76.914062 4.453125 M 72 4.585938 C 72.050781 4.628906 72.410156 4.671875 72.382812 4.632812 C 72.367188 4.609375 72.273438 4.582031 72.167969 4.578125 C 72.0625 4.570312 71.988281 4.574219 72 4.585938 M 76.605469 4.675781 C 76.515625 4.703125 76.449219 4.738281 76.464844 4.75 C 76.480469 4.765625 76.570312 4.753906 76.664062 4.722656 C 76.78125 4.683594 76.902344 4.679688 77.039062 4.710938 C 77.152344 4.738281 77.34375 4.746094 77.46875 4.730469 C 77.613281 4.714844 77.742188 4.734375 77.84375 4.785156 C 77.976562 4.847656 78 4.851562 78 4.792969 C 78 4.671875 76.9375 4.585938 76.605469 4.675781 M 72.539062 4.703125 C 72.597656 4.714844 72.699219 4.714844 72.761719 4.703125 C 72.824219 4.691406 72.773438 4.683594 72.648438 4.683594 C 72.527344 4.683594 72.476562 4.691406 72.539062 4.703125 M 5.855469 4.847656 C 5.695312 5.050781 5.695312 5.089844 5.710938 8.742188 L 5.726562 12.191406 L 5.847656 12.320312 C 6.0625 12.550781 6.652344 12.46875 6.808594 12.1875 C 6.847656 12.113281 6.875 11.816406 6.878906 11.339844 C 6.882812 10.707031 6.898438 10.578125 6.984375 10.433594 L 7.082031 10.265625 L 8.453125 10.257812 C 9.207031 10.25 9.851562 10.246094 9.882812 10.246094 C 10.117188 10.230469 10.222656 9.609375 10.035156 9.332031 L 9.921875 9.160156 L 7.078125 9.113281 L 6.976562 8.929688 C 6.851562 8.707031 6.863281 8.363281 7 8.179688 L 7.09375 8.058594 L 8.503906 8.03125 L 9.914062 8.007812 L 10.019531 7.863281 C 10.167969 7.664062 10.15625 7.222656 9.996094 7.050781 L 9.882812 6.925781 L 8.539062 6.925781 C 7.046875 6.925781 7.046875 6.925781 6.921875 6.605469 C 6.839844 6.382812 6.839844 6.375 6.957031 6.140625 L 7.074219 5.898438 L 11.769531 5.886719 C 16.988281 5.871094 16.625 5.847656 16.777344 6.210938 C 16.867188 6.425781 16.820312 6.59375 16.613281 6.800781 L 16.488281 6.925781 L 13.707031 6.925781 L 13.601562 7.058594 C 13.464844 7.238281 13.460938 7.644531 13.597656 7.867188 L 13.699219 8.03125 L 15.089844 8.03125 C 16.957031 8.03125 16.816406 7.886719 16.792969 9.761719 L 16.773438 11.054688 L 16.625 11.175781 L 16.476562 11.292969 L 13.511719 11.292969 C 10.167969 11.296875 10.261719 11.285156 10.160156 11.636719 C 10.101562 11.824219 10.109375 11.933594 10.183594 12.214844 C 10.246094 12.445312 10.328125 12.449219 14.078125 12.449219 C 17.882812 12.449219 17.757812 12.457031 17.878906 12.171875 C 17.992188 11.898438 17.984375 5.304688 17.867188 5.019531 C 17.742188 4.703125 18.070312 4.71875 11.78125 4.71875 L 5.957031 4.71875 L 5.855469 4.847656 M 87.585938 5.15625 C 87.785156 5.167969 88.113281 5.167969 88.3125 5.15625 C 88.511719 5.148438 88.347656 5.140625 87.949219 5.140625 C 87.550781 5.140625 87.386719 5.148438 87.585938 5.15625 M 93.8125 5.15625 C 93.886719 5.167969 94.011719 5.167969 94.085938 5.15625 C 94.164062 5.144531 94.101562 5.136719 93.949219 5.136719 C 93.796875 5.136719 93.738281 5.144531 93.8125 5.15625 M 57.511719 5.421875 C 57.511719 5.546875 57.523438 5.597656 57.535156 5.535156 C 57.546875 5.472656 57.546875 5.371094 57.535156 5.308594 C 57.523438 5.246094 57.511719 5.296875 57.511719 5.421875 M 39.898438 5.371094 C 39.941406 5.398438 40.019531 5.421875 40.070312 5.421875 C 40.199219 5.421875 40.160156 5.394531 39.976562 5.351562 C 39.867188 5.328125 39.84375 5.332031 39.898438 5.371094 M 88.863281 5.40625 C 88.910156 5.417969 88.988281 5.417969 89.039062 5.40625 C 89.085938 5.394531 89.046875 5.382812 88.949219 5.382812 C 88.855469 5.382812 88.8125 5.394531 88.863281 5.40625 M 89.4375 5.40625 C 89.5 5.417969 89.589844 5.417969 89.636719 5.40625 C 89.6875 5.394531 89.636719 5.382812 89.523438 5.382812 C 89.414062 5.382812 89.375 5.394531 89.4375 5.40625 M 94.585938 5.40625 C 94.648438 5.417969 94.75 5.417969 94.8125 5.40625 C 94.875 5.394531 94.824219 5.386719 94.699219 5.386719 C 94.578125 5.386719 94.527344 5.394531 94.585938 5.40625 M 95.539062 5.40625 C 95.597656 5.417969 95.699219 5.417969 95.761719 5.40625 C 95.824219 5.394531 95.773438 5.386719 95.648438 5.386719 C 95.527344 5.386719 95.476562 5.394531 95.539062 5.40625 M 37.613281 5.457031 C 37.660156 5.46875 37.738281 5.46875 37.789062 5.457031 C 37.835938 5.445312 37.796875 5.433594 37.699219 5.433594 C 37.605469 5.433594 37.566406 5.445312 37.613281 5.457031 M 38.613281 5.457031 C 38.714844 5.46875 38.882812 5.46875 38.988281 5.457031 C 39.089844 5.449219 39.007812 5.4375 38.800781 5.4375 C 38.59375 5.4375 38.507812 5.449219 38.613281 5.457031 M 71.164062 5.875 C 71.164062 6.054688 71.175781 6.125 71.1875 6.035156 C 71.195312 5.945312 71.195312 5.800781 71.1875 5.710938 C 71.175781 5.621094 71.164062 5.695312 71.164062 5.875 M 68.664062 6.023438 C 68.664062 6.175781 68.675781 6.238281 68.6875 6.160156 C 68.699219 6.085938 68.699219 5.960938 68.6875 5.886719 C 68.675781 5.808594 68.664062 5.871094 68.664062 6.023438 M 73.511719 6.125 C 73.511719 6.25 73.523438 6.300781 73.535156 6.238281 C 73.546875 6.175781 73.546875 6.074219 73.535156 6.011719 C 73.523438 5.949219 73.511719 6 73.511719 6.125 M 54.210938 6.308594 C 54.261719 6.324219 54.339844 6.324219 54.386719 6.308594 C 54.4375 6.296875 54.394531 6.285156 54.300781 6.285156 C 54.203125 6.285156 54.164062 6.296875 54.210938 6.308594 M 58.261719 6.308594 C 58.3125 6.324219 58.390625 6.324219 58.4375 6.308594 C 58.484375 6.296875 58.445312 6.285156 58.351562 6.285156 C 58.253906 6.285156 58.214844 6.296875 58.261719 6.308594 M 58.914062 6.3125 C 59.015625 6.324219 59.183594 6.324219 59.289062 6.3125 C 59.390625 6.300781 59.304688 6.292969 59.101562 6.292969 C 58.894531 6.292969 58.808594 6.300781 58.914062 6.3125 M 68.667969 6.976562 C 68.667969 7.238281 68.675781 7.347656 68.6875 7.214844 C 68.695312 7.085938 68.695312 6.871094 68.6875 6.738281 C 68.675781 6.609375 68.667969 6.714844 68.667969 6.976562 M 71.171875 7.453125 C 71.171875 7.953125 71.179688 8.148438 71.1875 7.890625 C 71.195312 7.632812 71.195312 7.226562 71.1875 6.988281 C 71.179688 6.746094 71.171875 6.957031 71.171875 7.453125 M 33.300781 6.796875 C 33.296875 6.949219 33.460938 7.027344 33.605469 6.941406 C 33.683594 6.894531 33.75 6.835938 33.75 6.808594 C 33.75 6.78125 33.707031 6.796875 33.660156 6.84375 C 33.542969 6.953125 33.453125 6.949219 33.371094 6.839844 C 33.332031 6.792969 33.300781 6.773438 33.300781 6.796875 M 51.363281 7.40625 C 51.363281 7.542969 51.375 7.59375 51.386719 7.515625 C 51.398438 7.441406 51.398438 7.328125 51.386719 7.265625 C 51.375 7.203125 51.363281 7.265625 51.363281 7.40625 M 13.722656 9.125 C 13.320312 9.40625 13.453125 10.199219 13.914062 10.273438 C 14.457031 10.363281 14.804688 9.902344 14.601562 9.363281 C 14.519531 9.152344 13.917969 8.988281 13.722656 9.125 M 68.664062 9.511719 C 68.664062 9.679688 68.675781 9.742188 68.6875 9.648438 C 68.699219 9.558594 68.695312 9.425781 68.6875 9.347656 C 68.675781 9.273438 68.664062 9.347656 68.664062 9.511719 M 32.539062 9.445312 C 32.464844 9.523438 32.460938 9.539062 32.527344 9.539062 C 32.570312 9.539062 32.617188 9.503906 32.632812 9.460938 C 32.675781 9.347656 32.636719 9.339844 32.539062 9.445312 M 32.714844 10.214844 C 32.714844 10.355469 32.722656 10.40625 32.734375 10.328125 C 32.746094 10.25 32.746094 10.140625 32.734375 10.078125 C 32.722656 10.015625 32.714844 10.078125 32.714844 10.214844 M 68.667969 10.492188 C 68.667969 10.753906 68.675781 10.863281 68.6875 10.730469 C 68.695312 10.597656 68.695312 10.382812 68.6875 10.253906 C 68.675781 10.121094 68.667969 10.230469 68.667969 10.492188 M 73.511719 10.992188 C 73.511719 11.117188 73.523438 11.167969 73.535156 11.105469 C 73.546875 11.042969 73.546875 10.941406 73.535156 10.882812 C 73.523438 10.820312 73.511719 10.871094 73.511719 10.992188 M 32.710938 11.121094 C 32.714844 11.230469 32.722656 11.269531 32.734375 11.207031 C 32.746094 11.144531 32.746094 11.054688 32.734375 11.007812 C 32.722656 10.957031 32.710938 11.007812 32.710938 11.121094 M 68.664062 11.445312 C 68.664062 11.597656 68.675781 11.660156 68.6875 11.582031 C 68.699219 11.507812 68.699219 11.382812 68.6875 11.308594 C 68.675781 11.230469 68.664062 11.292969 68.664062 11.445312 M 68.667969 12.550781 C 68.667969 12.894531 68.675781 13.035156 68.6875 12.863281 C 68.695312 12.691406 68.695312 12.410156 68.6875 12.238281 C 68.675781 12.0625 68.667969 12.207031 68.667969 12.550781 M 116.148438 12.476562 C 116.027344 12.597656 115.941406 12.699219 115.953125 12.699219 C 115.96875 12.699219 116.078125 12.597656 116.199219 12.476562 C 116.320312 12.351562 116.410156 12.25 116.394531 12.25 C 116.382812 12.25 116.273438 12.351562 116.148438 12.476562 M 30.960938 12.835938 C 31.011719 12.847656 31.089844 12.847656 31.136719 12.835938 C 31.1875 12.824219 31.144531 12.8125 31.050781 12.8125 C 30.953125 12.8125 30.914062 12.824219 30.960938 12.835938 M 71.914062 13.1875 C 72.015625 13.199219 72.183594 13.199219 72.289062 13.1875 C 72.390625 13.179688 72.304688 13.167969 72.101562 13.167969 C 71.894531 13.167969 71.808594 13.179688 71.914062 13.1875 M 77.113281 13.1875 C 77.1875 13.199219 77.300781 13.199219 77.363281 13.1875 C 77.425781 13.175781 77.363281 13.167969 77.226562 13.167969 C 77.085938 13.167969 77.039062 13.175781 77.113281 13.1875 M 6.988281 13.628906 C 6.75 13.867188 6.773438 14.339844 7.035156 14.570312 C 7.125 14.652344 7.253906 14.660156 8.53125 14.648438 L 9.925781 14.632812 L 10.039062 14.402344 C 10.171875 14.132812 10.152344 13.835938 9.988281 13.628906 L 9.894531 13.503906 L 7.113281 13.503906 L 6.988281 13.628906 M 37.789062 14.042969 C 37.875 14.054688 38.023438 14.054688 38.113281 14.042969 C 38.203125 14.03125 38.128906 14.023438 37.949219 14.023438 C 37.769531 14.023438 37.699219 14.03125 37.789062 14.042969 M 108.960938 14.042969 C 109.644531 14.050781 110.757812 14.050781 111.4375 14.042969 C 112.117188 14.035156 111.5625 14.027344 110.199219 14.027344 C 108.839844 14.027344 108.28125 14.035156 108.960938 14.042969 M 42.863281 14.140625 C 42.910156 14.152344 42.988281 14.152344 43.039062 14.140625 C 43.085938 14.128906 43.046875 14.117188 42.949219 14.117188 C 42.855469 14.117188 42.816406 14.128906 42.863281 14.140625 M 73.515625 14.507812 C 73.515625 14.714844 73.527344 14.800781 73.535156 14.695312 C 73.546875 14.59375 73.546875 14.421875 73.535156 14.320312 C 73.527344 14.214844 73.515625 14.300781 73.515625 14.507812 M 115.761719 14.632812 C 115.761719 14.742188 115.773438 14.78125 115.785156 14.722656 C 115.796875 14.660156 115.796875 14.566406 115.785156 14.519531 C 115.773438 14.472656 115.761719 14.523438 115.761719 14.632812 M 42.0625 14.984375 C 42.0625 15.09375 42.074219 15.132812 42.085938 15.074219 C 42.097656 15.007812 42.097656 14.917969 42.085938 14.871094 C 42.070312 14.824219 42.0625 14.875 42.0625 14.984375 M 39.566406 15.234375 C 39.566406 15.402344 39.574219 15.464844 39.585938 15.375 C 39.597656 15.28125 39.597656 15.148438 39.585938 15.070312 C 39.574219 14.996094 39.566406 15.070312 39.566406 15.234375 M 115.765625 15.8125 C 115.765625 15.964844 115.773438 16.027344 115.785156 15.953125 C 115.796875 15.875 115.796875 15.75 115.785156 15.675781 C 115.773438 15.597656 115.765625 15.660156 115.765625 15.8125 M 113.3125 16.113281 C 113.3125 16.238281 113.324219 16.289062 113.335938 16.226562 C 113.347656 16.164062 113.347656 16.0625 113.335938 16 C 113.324219 15.941406 113.3125 15.988281 113.3125 16.113281 M 39.566406 16.214844 C 39.566406 16.367188 39.574219 16.429688 39.585938 16.351562 C 39.597656 16.277344 39.597656 16.152344 39.585938 16.078125 C 39.574219 16 39.566406 16.0625 39.566406 16.214844 M 115.773438 17.621094 C 115.773438 18.40625 115.777344 18.730469 115.789062 18.335938 C 115.796875 17.941406 115.796875 17.296875 115.789062 16.90625 C 115.777344 16.511719 115.773438 16.832031 115.773438 17.621094 M 73.511719 16.96875 C 73.511719 17.09375 73.523438 17.144531 73.535156 17.082031 C 73.546875 17.019531 73.546875 16.917969 73.535156 16.855469 C 73.523438 16.792969 73.511719 16.84375 73.511719 16.96875 M 80.71875 17.644531 C 80.71875 17.921875 80.726562 18.027344 80.738281 17.882812 C 80.746094 17.738281 80.746094 17.511719 80.738281 17.378906 C 80.726562 17.25 80.71875 17.371094 80.71875 17.644531 M 5.429688 19.121094 C 5.683594 19.238281 5.699219 19.304688 5.699219 20.175781 C 5.699219 21.175781 5.613281 21.253906 4.523438 21.222656 C 3.496094 21.191406 3.5 21.199219 3.5 20.132812 C 3.5 19.34375 3.558594 19.101562 3.757812 19.0625 C 4.125 18.992188 5.230469 19.03125 5.429688 19.121094 M 37.359375 19.265625 C 37.652344 19.273438 38.148438 19.273438 38.460938 19.265625 C 38.769531 19.253906 38.53125 19.25 37.925781 19.25 C 37.320312 19.25 37.066406 19.253906 37.359375 19.265625 M 107.710938 19.5625 C 107.761719 19.574219 107.839844 19.574219 107.886719 19.5625 C 107.933594 19.550781 107.894531 19.539062 107.800781 19.539062 C 107.703125 19.539062 107.664062 19.550781 107.710938 19.5625 M 36.664062 19.664062 C 36.710938 19.675781 36.789062 19.675781 36.835938 19.664062 C 36.886719 19.652344 36.847656 19.640625 36.75 19.640625 C 36.652344 19.640625 36.613281 19.652344 36.664062 19.664062 M 37.589844 19.664062 C 37.679688 19.675781 37.8125 19.675781 37.886719 19.664062 C 37.964844 19.652344 37.890625 19.644531 37.726562 19.644531 C 37.558594 19.644531 37.5 19.652344 37.589844 19.664062 M 39.039062 19.664062 C 39.097656 19.675781 39.199219 19.675781 39.261719 19.664062 C 39.324219 19.652344 39.273438 19.640625 39.148438 19.640625 C 39.027344 19.640625 38.976562 19.652344 39.039062 19.664062 M 42.3125 19.664062 C 42.359375 19.675781 42.441406 19.675781 42.488281 19.664062 C 42.535156 19.652344 42.496094 19.640625 42.398438 19.640625 C 42.304688 19.640625 42.265625 19.652344 42.3125 19.664062 M 112.699219 19.925781 C 112.578125 19.960938 112.578125 19.960938 112.730469 19.988281 C 112.847656 20.003906 112.882812 19.992188 112.863281 19.945312 C 112.851562 19.910156 112.835938 19.882812 112.832031 19.882812 C 112.828125 19.886719 112.769531 19.90625 112.699219 19.925781 "/>
<path style=" stroke:none;fill-rule:evenodd;fill:rgb(18.431373%,18.431373%,18.431373%);fill-opacity:1;" d="M 55.335938 4.109375 C 55.066406 4.289062 55.039062 4.371094 55.003906 5.1875 C 54.960938 6.097656 54.898438 6.273438 54.601562 6.277344 C 54.210938 6.285156 51.554688 6.261719 50.46875 6.238281 C 49.121094 6.210938 48.988281 6.238281 48.902344 6.570312 C 48.875 6.671875 48.847656 8.457031 48.835938 10.667969 C 48.804688 15.679688 48.742188 16.375 48.101562 18.550781 C 47.816406 19.519531 47.808594 19.617188 48.011719 19.640625 C 48.507812 19.691406 49.6875 18.390625 50.398438 17.011719 C 51.234375 15.378906 51.472656 13.351562 51.367188 8.730469 C 51.3125 6.34375 51.160156 6.511719 53.367188 6.550781 C 54.304688 6.570312 55.671875 6.582031 56.398438 6.574219 C 59.402344 6.554688 60.769531 6.558594 61.550781 6.597656 C 63.203125 6.683594 63.535156 6.433594 62.703125 5.75 C 62.15625 5.296875 61.941406 5.308594 61.246094 5.828125 C 60.988281 6.023438 60.730469 6.207031 60.675781 6.234375 C 60.617188 6.269531 60.070312 6.292969 59.210938 6.292969 L 57.839844 6.300781 L 57.722656 6.164062 C 57.582031 6 57.476562 5.53125 57.519531 5.261719 C 57.589844 4.828125 57.5 4.410156 57.296875 4.203125 L 57.113281 4.015625 L 56.292969 4.015625 C 55.582031 4.015625 55.457031 4.027344 55.335938 4.109375 M 108.769531 4.292969 C 108.675781 4.394531 108.539062 4.582031 108.46875 4.710938 C 108.179688 5.214844 107.5625 6.167969 107.277344 6.546875 C 106.976562 6.941406 106.453125 7.679688 106.128906 8.160156 C 106.035156 8.300781 105.921875 8.445312 105.875 8.484375 C 105.828125 8.523438 105.722656 8.65625 105.636719 8.78125 C 105.550781 8.90625 105.347656 9.175781 105.179688 9.382812 C 104.253906 10.511719 104.03125 10.710938 103.609375 10.792969 C 103.140625 10.882812 103.128906 10.886719 103.03125 10.957031 C 102.847656 11.09375 103 11.339844 103.652344 11.953125 C 104.71875 12.957031 104.871094 12.988281 106.574219 12.578125 C 106.851562 12.511719 107.242188 12.429688 107.449219 12.398438 C 107.65625 12.363281 107.894531 12.308594 107.980469 12.273438 C 108.0625 12.238281 108.34375 12.160156 108.605469 12.101562 C 108.863281 12.042969 109.242188 11.929688 109.449219 11.851562 C 109.65625 11.773438 109.921875 11.691406 110.042969 11.671875 C 110.160156 11.652344 110.597656 11.511719 111.015625 11.363281 C 111.433594 11.214844 112.035156 11.003906 112.351562 10.894531 C 113.144531 10.628906 113.902344 10.308594 113.96875 10.214844 C 114.078125 10.070312 114.378906 10.035156 114.488281 10.160156 C 114.761719 10.476562 114.96875 10.949219 115.28125 11.972656 C 115.488281 12.664062 115.515625 12.699219 115.828125 12.699219 C 116.027344 12.703125 117.363281 11.210938 117.449219 10.890625 C 117.601562 10.324219 115.929688 8.3125 114.585938 7.445312 C 114.46875 7.367188 114.285156 7.234375 114.179688 7.140625 C 114.070312 7.050781 113.960938 6.976562 113.9375 6.976562 C 113.910156 6.976562 113.828125 6.933594 113.75 6.875 C 113.160156 6.457031 113 6.621094 113.332031 7.316406 C 114.179688 9.097656 114.199219 9.144531 114.199219 9.386719 C 114.199219 9.671875 114.097656 9.789062 113.847656 9.789062 C 113.753906 9.789062 113.507812 9.824219 113.300781 9.863281 C 112.964844 9.929688 111.660156 10.085938 110.800781 10.164062 C 110.621094 10.179688 110.25 10.226562 109.976562 10.265625 C 108.972656 10.410156 106.277344 10.613281 105.988281 10.566406 C 105.816406 10.535156 105.699219 10.429688 105.699219 10.304688 C 105.699219 10.28125 105.808594 10.210938 105.9375 10.144531 C 106.179688 10.027344 106.355469 9.917969 107.265625 9.335938 C 108.609375 8.46875 109.105469 8.070312 110.179688 6.996094 C 111.023438 6.152344 111.019531 6.105469 109.976562 4.957031 C 109.40625 4.328125 109.335938 4.265625 109.074219 4.164062 C 108.953125 4.121094 108.921875 4.132812 108.769531 4.292969 M 31.25 4.355469 C 31.042969 4.460938 30.984375 4.625 30.777344 5.671875 C 30.601562 6.566406 30.488281 6.789062 30.195312 6.839844 C 30.042969 6.863281 29.941406 6.917969 29.863281 7.011719 C 29.738281 7.167969 29.75 7.195312 30.003906 7.273438 C 30.5 7.433594 30.496094 7.480469 29.757812 11.65625 C 29.5625 12.765625 29.617188 12.832031 30.800781 12.816406 C 32.050781 12.800781 32.050781 12.800781 32.050781 14.191406 C 32.050781 15.359375 31.996094 15.457031 31.324219 15.539062 C 31.1875 15.554688 30.882812 15.621094 30.648438 15.683594 C 30.417969 15.75 30.09375 15.824219 29.929688 15.855469 C 29.367188 15.960938 29.257812 16.222656 29.59375 16.667969 C 29.664062 16.761719 29.808594 16.964844 29.90625 17.117188 C 30.234375 17.609375 30.535156 17.65625 31.191406 17.324219 C 31.96875 16.929688 32.050781 17.046875 32.050781 18.613281 C 32.050781 20.132812 32.007812 20.082031 33.234375 20.078125 C 34.597656 20.078125 34.5 20.253906 34.503906 17.835938 C 34.507812 15.722656 34.5 15.773438 34.933594 15.515625 C 35.761719 15.023438 35.941406 14.820312 35.554688 14.804688 C 34.433594 14.769531 34.484375 14.816406 34.507812 13.800781 C 34.53125 12.828125 34.558594 12.800781 35.660156 12.800781 C 36.34375 12.796875 36.449219 12.746094 36.414062 12.421875 C 36.394531 12.234375 36.371094 12.210938 36.058594 12.03125 C 35.875 11.929688 35.664062 11.796875 35.585938 11.738281 C 35.492188 11.660156 35.34375 11.617188 35.097656 11.589844 C 34.574219 11.535156 34.601562 11.59375 34.597656 10.421875 C 34.597656 8.863281 34.558594 8.785156 33.765625 8.746094 C 32.710938 8.699219 32.726562 8.667969 32.726562 10.582031 C 32.726562 11.402344 32.707031 12.109375 32.683594 12.152344 C 32.582031 12.359375 32.109375 12.441406 31.914062 12.285156 C 31.820312 12.214844 31.835938 11.828125 31.949219 11.421875 C 32 11.230469 32.070312 10.878906 32.101562 10.640625 C 32.207031 9.84375 32.289062 9.550781 32.429688 9.515625 C 32.617188 9.46875 32.679688 9.285156 32.609375 8.980469 C 32.464844 8.359375 32.585938 7.65625 32.882812 7.390625 L 33.066406 7.226562 L 34.597656 7.261719 C 36.304688 7.296875 36.308594 7.296875 36.386719 6.980469 L 36.4375 6.777344 L 36.15625 6.53125 C 35.261719 5.757812 35.160156 5.734375 34.640625 6.210938 C 34.433594 6.402344 34.152344 6.613281 34.019531 6.679688 C 33.886719 6.746094 33.746094 6.832031 33.710938 6.867188 C 33.539062 7.023438 33.460938 7.03125 33.359375 6.902344 C 33.304688 6.832031 33.238281 6.777344 33.207031 6.777344 C 32.960938 6.777344 32.898438 6.335938 33.050781 5.671875 C 33.222656 4.910156 33.164062 4.503906 32.851562 4.34375 C 32.628906 4.226562 31.488281 4.234375 31.25 4.355469 M 97.101562 4.355469 C 97.058594 4.371094 96.84375 4.523438 96.625 4.691406 C 95.96875 5.199219 96.515625 5.15625 90.75 5.160156 C 87.703125 5.160156 85.625 5.179688 85.550781 5.210938 L 85.425781 5.257812 L 85.582031 5.335938 C 85.714844 5.40625 86.015625 5.414062 87.929688 5.414062 C 90.371094 5.40625 90.332031 5.402344 90.492188 5.734375 C 90.597656 5.953125 90.601562 6.003906 90.601562 8.703125 L 90.601562 11.449219 L 90.355469 11.695312 L 87.507812 11.695312 C 84.683594 11.695312 84.316406 11.714844 84.363281 11.867188 C 84.414062 12.023438 84.722656 12.042969 87.40625 12.046875 C 89.230469 12.046875 90.136719 12.066406 90.246094 12.105469 C 90.585938 12.222656 90.570312 12.066406 90.601562 16.164062 C 90.628906 20.1875 90.617188 20.074219 90.914062 20.179688 C 91.074219 20.234375 92.636719 20.253906 92.773438 20.199219 C 93.023438 20.101562 93.023438 20.128906 93.050781 16.140625 C 93.078125 12.140625 93.066406 12.269531 93.339844 12.128906 C 93.511719 12.039062 94.886719 12.019531 97.324219 12.066406 C 99.039062 12.101562 99.246094 12.085938 99.363281 11.894531 C 99.492188 11.6875 98.738281 10.980469 98.320312 10.914062 C 98.074219 10.878906 97.992188 10.914062 97.5625 11.253906 C 96.949219 11.734375 97.152344 11.695312 95.183594 11.695312 C 93.539062 11.695312 93.4375 11.691406 93.25 11.59375 L 93.050781 11.492188 L 93.050781 5.941406 L 93.203125 5.707031 C 93.40625 5.402344 93.273438 5.429688 94.605469 5.402344 C 95.59375 5.378906 95.808594 5.390625 96 5.457031 C 96.164062 5.515625 96.480469 5.542969 97.179688 5.558594 L 98.136719 5.585938 L 98.304688 5.433594 C 98.6875 5.085938 97.636719 4.144531 97.101562 4.355469 M 69.113281 4.453125 C 69.054688 4.464844 68.9375 4.550781 68.855469 4.644531 L 68.707031 4.816406 L 68.6875 9.648438 L 68.667969 14.484375 L 68.535156 15.363281 C 68.339844 16.683594 68.058594 17.445312 67.3125 18.6875 C 66.816406 19.519531 67.066406 19.6875 68.042969 19.179688 C 69.746094 18.292969 70.855469 16.515625 71.152344 14.207031 C 71.234375 13.550781 71.261719 13.535156 72.214844 13.511719 C 73.640625 13.480469 73.523438 13.230469 73.523438 16.316406 C 73.523438 19.441406 73.425781 19.214844 74.789062 19.222656 C 76.09375 19.230469 76 19.441406 76 16.460938 C 76 13.265625 75.902344 13.503906 77.210938 13.503906 L 78 13.503906 L 78.160156 13.652344 L 78.324219 13.796875 L 78.339844 15.769531 C 78.359375 18.300781 78.390625 18.171875 77.746094 18.238281 C 77.59375 18.25 77.378906 18.300781 77.273438 18.347656 L 77.074219 18.429688 L 77.324219 18.652344 C 77.785156 19.058594 79.046875 19.726562 79.351562 19.726562 C 79.804688 19.730469 80.523438 19.101562 80.652344 18.589844 C 80.71875 18.324219 80.789062 5.585938 80.726562 5.078125 C 80.699219 4.871094 80.652344 4.765625 80.523438 4.625 L 80.359375 4.441406 L 74.792969 4.4375 C 71.730469 4.433594 69.175781 4.441406 69.113281 4.453125 M 42.066406 4.765625 C 41.640625 5.203125 41.703125 5.195312 39.449219 5.199219 C 38.363281 5.203125 37.398438 5.210938 37.300781 5.214844 L 37.128906 5.222656 L 37.253906 5.347656 C 37.375 5.46875 37.394531 5.472656 37.714844 5.425781 C 37.894531 5.402344 38.300781 5.390625 38.609375 5.40625 C 38.921875 5.417969 39.34375 5.410156 39.550781 5.382812 C 39.84375 5.34375 39.976562 5.351562 40.175781 5.410156 C 40.371094 5.46875 40.46875 5.472656 40.628906 5.429688 C 41.402344 5.226562 41.542969 5.820312 40.957031 6.8125 C 40.273438 7.976562 39.957031 8.453125 39.464844 9.09375 C 39.351562 9.242188 39.160156 9.488281 39.039062 9.644531 C 38.695312 10.09375 38.15625 10.664062 37.6875 11.074219 C 37.445312 11.285156 37.25 11.488281 37.25 11.519531 C 37.25 11.554688 37.207031 11.640625 37.152344 11.707031 C 37 11.902344 37.261719 11.988281 37.515625 11.828125 C 37.574219 11.789062 37.742188 11.734375 37.882812 11.703125 C 38.421875 11.589844 40.351562 10.503906 41.035156 9.925781 C 41.449219 9.574219 41.691406 9.664062 42.175781 10.34375 C 42.683594 11.054688 42.953125 11.457031 43.050781 11.65625 C 43.113281 11.785156 43.25 11.972656 43.351562 12.074219 L 43.539062 12.257812 L 43.792969 12.144531 C 43.9375 12.085938 44.070312 12.003906 44.089844 11.96875 C 44.109375 11.933594 44.292969 11.722656 44.5 11.496094 C 44.707031 11.269531 44.921875 10.992188 44.980469 10.878906 L 45.089844 10.671875 L 44.988281 10.46875 C 44.882812 10.25 44.226562 9.777344 43.789062 9.605469 C 43.671875 9.558594 43.53125 9.492188 43.476562 9.457031 C 43.417969 9.421875 43.207031 9.34375 43 9.28125 C 42.222656 9.046875 42.199219 8.800781 42.878906 7.957031 C 42.96875 7.847656 43.179688 7.542969 43.351562 7.28125 C 43.988281 6.316406 44 6.167969 43.484375 5.546875 C 42.542969 4.410156 42.457031 4.363281 42.066406 4.765625 M 72.375 4.621094 C 72.402344 4.640625 72.539062 4.667969 72.675781 4.679688 C 72.949219 4.707031 73.355469 4.941406 73.457031 5.132812 C 73.539062 5.289062 73.519531 8.554688 73.4375 8.726562 C 73.332031 8.941406 73.070312 8.992188 72.214844 8.976562 C 71.105469 8.953125 71.132812 9.007812 71.164062 6.730469 C 71.183594 5.160156 71.207031 5.03125 71.492188 4.886719 C 71.554688 4.855469 71.640625 4.785156 71.679688 4.726562 C 71.773438 4.59375 72.230469 4.523438 72.375 4.621094 M 77.886719 4.699219 C 77.949219 4.710938 78 4.75 78 4.785156 C 78 4.824219 78.054688 4.902344 78.121094 4.964844 C 78.347656 5.179688 78.355469 5.257812 78.339844 7.023438 L 78.324219 8.691406 L 78.160156 8.839844 L 78 8.984375 L 77.207031 8.984375 C 75.945312 8.984375 76.011719 9.097656 76.003906 6.945312 C 76 5.210938 76 5.199219 76.316406 4.902344 C 76.597656 4.636719 77.199219 4.558594 77.886719 4.699219 M 95.863281 6.578125 C 95.78125 6.609375 95.726562 6.714844 95.644531 6.988281 C 95.445312 7.660156 94.847656 9.191406 94.53125 9.835938 C 94.210938 10.484375 94.1875 10.667969 94.429688 10.707031 C 95.011719 10.804688 97.226562 8.902344 97.441406 8.121094 C 97.507812 7.878906 97.378906 7.679688 96.746094 7.015625 C 96.25 6.5 96.164062 6.457031 95.863281 6.578125 M 86.738281 6.929688 C 86.542969 7.046875 86.539062 7.152344 86.730469 7.566406 C 87.007812 8.171875 87.492188 9.410156 87.8125 10.316406 C 88.070312 11.058594 88.277344 11.0625 88.960938 10.347656 C 89.691406 9.582031 89.773438 9.339844 89.457031 8.855469 C 88.761719 7.796875 87.179688 6.675781 86.738281 6.929688 M 61.140625 8.71875 C 60.925781 8.804688 60.914062 8.839844 60.730469 9.6875 C 60.664062 10.007812 60.585938 10.367188 60.558594 10.492188 C 60.472656 10.882812 60.160156 12.066406 60.082031 12.28125 C 60.042969 12.394531 59.972656 12.675781 59.925781 12.90625 C 59.878906 13.136719 59.773438 13.496094 59.691406 13.703125 C 59.613281 13.910156 59.523438 14.183594 59.496094 14.308594 C 59.46875 14.429688 59.417969 14.601562 59.378906 14.683594 C 59.339844 14.765625 59.191406 15.195312 59.046875 15.636719 C 58.90625 16.078125 58.726562 16.566406 58.652344 16.71875 C 58.574219 16.867188 58.484375 17.117188 58.449219 17.269531 C 58.414062 17.421875 58.359375 17.578125 58.324219 17.621094 C 58.289062 17.660156 58.226562 17.777344 58.1875 17.875 C 58.023438 18.269531 58.253906 18.246094 54.324219 18.273438 C 50.65625 18.300781 50.414062 18.316406 50.675781 18.503906 C 50.832031 18.621094 50.898438 18.621094 57.160156 18.640625 C 64.105469 18.660156 63.710938 18.6875 63.507812 18.226562 C 63.417969 18.023438 63.035156 17.695312 62.667969 17.503906 C 62.433594 17.382812 62.140625 17.472656 61.726562 17.796875 C 61.117188 18.269531 61.203125 18.246094 60.039062 18.265625 C 59.058594 18.28125 58.988281 18.277344 58.777344 18.175781 L 58.558594 18.066406 L 58.679688 17.886719 C 58.746094 17.789062 58.800781 17.6875 58.800781 17.667969 C 58.800781 17.644531 58.875 17.582031 58.96875 17.523438 C 59.0625 17.46875 59.191406 17.34375 59.253906 17.25 C 59.320312 17.15625 59.511719 16.910156 59.675781 16.707031 C 59.839844 16.5 60.066406 16.199219 60.175781 16.042969 C 60.285156 15.882812 60.429688 15.683594 60.5 15.597656 C 60.570312 15.515625 60.703125 15.316406 60.800781 15.15625 C 60.894531 14.996094 61.089844 14.679688 61.230469 14.449219 C 61.515625 13.984375 61.566406 13.878906 62.207031 12.523438 C 63.003906 10.832031 63.089844 10.5 62.816406 10.175781 C 62.253906 9.515625 61.390625 8.621094 61.335938 8.636719 C 61.328125 8.636719 61.242188 8.675781 61.140625 8.71875 M 55.121094 9.320312 C 55.097656 9.4375 55.109375 9.539062 55.148438 9.605469 C 55.210938 9.707031 55.367188 10.132812 55.660156 11.019531 C 55.742188 11.265625 55.84375 11.554688 55.882812 11.652344 C 56 11.929688 56.296875 12.921875 56.40625 13.402344 C 56.460938 13.636719 56.558594 14.011719 56.625 14.230469 C 56.691406 14.453125 56.792969 14.882812 56.851562 15.1875 C 57.054688 16.222656 57.277344 16.261719 58.066406 15.386719 C 58.339844 15.082031 58.621094 14.796875 58.6875 14.75 C 58.867188 14.632812 59.109375 14.171875 59.050781 14.066406 C 59.023438 14.019531 58.945312 13.839844 58.878906 13.664062 C 58.753906 13.34375 58.464844 12.847656 58.121094 12.34375 C 58.011719 12.191406 57.824219 11.921875 57.703125 11.742188 C 57.042969 10.78125 55.640625 9.238281 55.425781 9.238281 C 55.382812 9.238281 55.300781 9.214844 55.25 9.1875 C 55.167969 9.140625 55.152344 9.160156 55.121094 9.320312 M 73.183594 9.382812 C 73.5 9.527344 73.515625 9.625 73.511719 11.289062 C 73.503906 13.128906 73.511719 13.117188 72.425781 13.175781 C 71.730469 13.21875 71.542969 13.164062 71.324219 12.882812 L 71.195312 12.710938 L 71.210938 11.210938 C 71.226562 9.53125 71.238281 9.460938 71.550781 9.351562 C 71.847656 9.25 72.9375 9.273438 73.183594 9.382812 M 78.109375 9.421875 C 78.332031 9.621094 78.351562 9.769531 78.351562 11.253906 L 78.351562 12.660156 L 78.191406 12.882812 C 78.023438 13.117188 77.992188 13.128906 77.550781 13.171875 C 76.902344 13.238281 76.46875 13.160156 76.222656 12.929688 L 76 12.71875 L 76 11.304688 C 76 9.257812 75.996094 9.265625 77.242188 9.304688 C 77.890625 9.324219 78.023438 9.34375 78.109375 9.421875 M 52.324219 10.574219 C 52.214844 10.6875 52.265625 11.0625 52.453125 11.496094 C 52.53125 11.675781 52.648438 12.015625 52.714844 12.25 C 52.785156 12.484375 52.878906 12.789062 52.925781 12.925781 C 53.207031 13.769531 53.269531 13.96875 53.355469 14.332031 C 53.410156 14.554688 53.507812 14.902344 53.570312 15.109375 C 53.636719 15.316406 53.726562 15.722656 53.769531 16.015625 C 53.914062 16.972656 54.085938 17.371094 54.359375 17.371094 C 54.429688 17.371094 55.46875 16.277344 55.796875 15.851562 C 56.007812 15.582031 56.046875 15.367188 55.929688 15.109375 C 55.554688 14.304688 54.800781 13.125 54.171875 12.363281 C 54.019531 12.175781 53.789062 11.886719 53.660156 11.722656 C 53.40625 11.398438 52.515625 10.492188 52.449219 10.492188 C 52.425781 10.492188 52.371094 10.527344 52.324219 10.574219 M 42.960938 12.972656 C 42.859375 13.050781 42.683594 13.203125 42.574219 13.308594 C 42.152344 13.710938 42.21875 13.703125 39.601562 13.703125 C 37.160156 13.707031 37.085938 13.714844 37.21875 13.914062 C 37.296875 14.035156 37.300781 14.035156 38.113281 14.027344 C 39.566406 14.011719 39.601562 14.058594 39.578125 15.914062 C 39.574219 16.203125 39.566406 17 39.5625 17.683594 L 39.550781 18.925781 L 39.402344 19.089844 L 39.257812 19.253906 L 36.554688 19.253906 L 36.523438 19.421875 C 36.507812 19.511719 36.507812 19.601562 36.527344 19.621094 C 36.542969 19.640625 38.402344 19.660156 40.660156 19.664062 L 44.761719 19.675781 L 44.90625 19.53125 C 45.148438 19.289062 45.105469 19.175781 44.609375 18.757812 C 44.121094 18.347656 43.796875 18.339844 43.371094 18.734375 C 43.171875 18.917969 42.761719 19.132812 42.492188 19.195312 C 42.378906 19.222656 42.332031 19.195312 42.203125 19.039062 L 42.046875 18.851562 L 42.054688 16.691406 C 42.0625 13.921875 41.980469 14.109375 43.148438 14.136719 C 43.933594 14.15625 44.121094 14.121094 44.300781 13.929688 L 44.414062 13.808594 L 44.285156 13.617188 C 43.796875 12.914062 43.324219 12.679688 42.960938 12.972656 M 104.945312 13.816406 C 104.683594 14.046875 104.695312 13.902344 104.699219 17.070312 C 104.703125 20.835938 104.597656 20.527344 105.882812 20.53125 C 106.796875 20.53125 106.890625 20.511719 107.191406 20.214844 L 107.402344 20.003906 L 110.066406 19.980469 C 111.527344 19.964844 112.753906 19.9375 112.789062 19.914062 C 112.824219 19.890625 112.851562 19.894531 112.851562 19.925781 C 112.851562 19.953125 112.945312 20.019531 113.0625 20.070312 C 113.179688 20.125 113.351562 20.25 113.449219 20.351562 L 113.621094 20.53125 L 114.472656 20.527344 C 115.910156 20.519531 115.769531 20.882812 115.757812 17.09375 C 115.742188 13.847656 115.742188 13.828125 115.449219 13.75 C 115.382812 13.730469 113.019531 13.710938 110.199219 13.710938 L 105.074219 13.707031 L 104.945312 13.816406 M 113.070312 14.226562 C 113.25 14.398438 113.300781 14.484375 113.304688 14.613281 C 113.347656 16.09375 113.285156 19.261719 113.210938 19.34375 C 112.996094 19.578125 113.015625 19.578125 110.132812 19.578125 L 107.40625 19.578125 L 107.289062 19.414062 L 107.175781 19.253906 L 107.175781 14.53125 L 107.296875 14.324219 C 107.46875 14.019531 107.476562 14.015625 110.308594 14.011719 L 112.84375 14.007812 L 113.070312 14.226562 "/>
<path style=" stroke:none;fill-rule:evenodd;fill:rgb(98.431373%,98.039216%,98.039216%);fill-opacity:1;" d="M 0 0.152344 L 0 0.300781 L 24.191406 0.300781 L 24.296875 0.433594 L 24.398438 0.566406 L 24.398438 24.285156 L 24.296875 24.414062 L 24.191406 24.546875 L 0 24.546875 L 0 24.847656 L 120 24.847656 L 120 0 L 0 0 L 0 0.152344 M 3.765625 3.699219 C 3.496094 3.753906 3.5 3.671875 3.5 8.582031 C 3.5 13.980469 3.417969 13.421875 4.210938 13.53125 C 4.589844 13.585938 4.742188 13.960938 4.554688 14.382812 C 4.457031 14.609375 4.460938 14.605469 3.886719 14.6875 C 3.585938 14.730469 3.5 14.84375 3.5 15.191406 C 3.5 15.695312 3.464844 15.683594 5.117188 15.714844 C 6.863281 15.742188 7.023438 15.8125 6.851562 16.457031 C 6.761719 16.792969 6.660156 16.816406 5.230469 16.816406 C 3.542969 16.820312 3.5 16.835938 3.5 17.433594 C 3.5 17.898438 3.476562 17.894531 5.136719 17.921875 C 7.035156 17.953125 6.878906 17.808594 6.855469 19.507812 C 6.832031 21.304688 6.769531 21.234375 8.414062 21.234375 C 10.226562 21.234375 10.097656 21.351562 10.101562 19.664062 C 10.101562 17.765625 9.953125 17.914062 11.886719 17.902344 C 13.476562 17.894531 13.429688 17.90625 13.503906 17.511719 C 13.621094 16.867188 13.414062 16.785156 11.726562 16.832031 C 10.261719 16.867188 10.101562 16.8125 10.101562 16.265625 C 10.101562 15.722656 10.125 15.714844 11.824219 15.714844 C 13.527344 15.710938 13.5 15.71875 13.5 15.1875 C 13.5 14.75 13.371094 14.660156 12.722656 14.660156 C 12.417969 14.65625 12.246094 13.972656 12.46875 13.632812 L 12.550781 13.503906 L 13.390625 13.503906 C 14.316406 13.503906 14.539062 13.558594 14.605469 13.804688 C 14.679688 14.074219 14.65625 19.71875 14.582031 19.898438 C 14.5 20.089844 14.304688 20.179688 13.972656 20.179688 C 13.683594 20.179688 13.582031 20.046875 13.503906 19.558594 C 13.421875 19.058594 13.421875 19.054688 12.59375 19.035156 C 11.289062 18.996094 11.285156 19 11.257812 20.054688 C 11.234375 20.984375 11.277344 21.105469 11.65625 21.175781 C 12 21.242188 17.488281 21.242188 17.613281 21.175781 C 17.898438 21.027344 17.898438 21.011719 17.898438 18.433594 C 17.898438 15.910156 17.898438 15.917969 18.148438 15.789062 C 18.585938 15.5625 19.046875 15.785156 19.050781 16.230469 C 19.054688 16.347656 19.050781 17.402344 19.050781 18.578125 C 19.042969 21.359375 18.992188 21.25 20.253906 21.21875 C 21.089844 21.199219 21.117188 21.191406 21.222656 20.929688 C 21.3125 20.703125 21.339844 15.417969 21.253906 15.039062 C 21.167969 14.675781 21.207031 14.683594 19.660156 14.671875 C 17.980469 14.65625 17.878906 14.617188 17.910156 13.984375 C 17.9375 13.527344 18.011719 13.503906 19.550781 13.503906 C 20.257812 13.503906 20.90625 13.488281 20.992188 13.472656 C 21.308594 13.410156 21.300781 13.546875 21.300781 8.582031 C 21.300781 3.804688 21.300781 3.851562 21.058594 3.71875 C 20.960938 3.667969 4.03125 3.648438 3.765625 3.699219 M 57.320312 4.210938 L 57.511719 4.410156 L 57.546875 5.1875 C 57.582031 5.964844 57.601562 6.050781 57.792969 6.210938 C 57.851562 6.257812 58.210938 6.273438 59.210938 6.273438 C 60.730469 6.273438 60.609375 6.300781 61.238281 5.824219 C 61.949219 5.289062 62.171875 5.285156 62.777344 5.804688 C 63.097656 6.078125 63.203125 6.34375 63.046875 6.5 C 62.953125 6.597656 62.894531 6.601562 61.8125 6.582031 C 60.644531 6.566406 58.757812 6.5625 56.375 6.578125 C 55.632812 6.582031 54.273438 6.570312 53.359375 6.550781 C 52.019531 6.527344 51.675781 6.53125 51.613281 6.585938 C 51.398438 6.765625 51.390625 6.835938 51.375 10.242188 C 51.351562 14.039062 51.304688 14.5625 50.816406 16.039062 C 50.414062 17.261719 49.304688 18.90625 48.53125 19.421875 C 48.464844 19.46875 48.355469 19.542969 48.285156 19.59375 C 48.191406 19.660156 48.109375 19.675781 47.988281 19.652344 L 47.816406 19.621094 L 47.875 19.359375 C 47.910156 19.21875 48.039062 18.738281 48.164062 18.296875 C 48.730469 16.316406 48.804688 15.464844 48.835938 10.640625 C 48.847656 8.378906 48.878906 6.671875 48.90625 6.5625 C 48.996094 6.207031 48.914062 6.214844 51.949219 6.253906 C 55.261719 6.300781 54.996094 6.394531 55.003906 5.171875 C 55.007812 4.09375 55.09375 4.015625 56.296875 4.015625 L 57.128906 4.015625 L 57.320312 4.210938 M 109.207031 4.222656 C 109.320312 4.277344 109.539062 4.464844 109.695312 4.632812 C 109.847656 4.804688 110.019531 4.988281 110.074219 5.046875 C 111.011719 6.023438 111.019531 6.191406 110.15625 7.03125 C 109.046875 8.117188 107.511719 9.296875 106.632812 9.75 C 106.523438 9.804688 106.347656 9.914062 106.238281 9.992188 C 106.132812 10.070312 105.964844 10.160156 105.871094 10.191406 C 105.59375 10.285156 105.699219 10.503906 106.046875 10.554688 C 106.390625 10.601562 108.726562 10.421875 110.125 10.238281 C 110.539062 10.1875 111.109375 10.121094 111.398438 10.09375 C 112.21875 10.015625 113.203125 9.890625 113.425781 9.839844 C 113.535156 9.8125 113.71875 9.789062 113.835938 9.789062 C 114.367188 9.789062 114.332031 9.40625 113.664062 8.03125 C 113.09375 6.863281 113.070312 6.796875 113.148438 6.703125 C 113.429688 6.363281 115.96875 8.386719 116.980469 9.761719 C 117.691406 10.722656 117.679688 10.789062 116.707031 11.898438 C 115.75 12.980469 115.582031 13 115.304688 12.046875 C 114.824219 10.417969 114.4375 9.859375 114.015625 10.207031 C 113.878906 10.324219 112.796875 10.765625 112.050781 11.011719 C 111.84375 11.078125 111.449219 11.21875 111.175781 11.320312 C 110.898438 11.425781 110.429688 11.574219 110.125 11.652344 C 109.824219 11.730469 109.472656 11.839844 109.347656 11.894531 C 109.222656 11.949219 108.917969 12.039062 108.671875 12.09375 C 108.425781 12.148438 108.128906 12.226562 108.007812 12.269531 C 107.890625 12.3125 107.585938 12.382812 107.332031 12.425781 C 107.082031 12.46875 106.699219 12.550781 106.484375 12.605469 C 105.421875 12.875 104.796875 12.890625 104.453125 12.65625 C 104.070312 12.398438 103.117188 11.472656 103.007812 11.261719 L 102.902344 11.046875 L 103.019531 10.957031 C 103.082031 10.90625 103.308594 10.835938 103.515625 10.800781 C 104.042969 10.710938 104.277344 10.507812 105.21875 9.3125 C 105.457031 9.007812 105.726562 8.667969 105.816406 8.558594 C 105.90625 8.449219 106.15625 8.101562 106.375 7.789062 C 106.59375 7.476562 106.945312 6.992188 107.152344 6.710938 C 107.359375 6.429688 107.617188 6.0625 107.722656 5.898438 C 108.191406 5.171875 108.339844 4.929688 108.46875 4.703125 C 108.785156 4.144531 108.90625 4.066406 109.207031 4.222656 M 32.957031 4.410156 C 33.175781 4.605469 33.203125 4.992188 33.054688 5.6875 C 32.898438 6.417969 32.96875 6.777344 33.273438 6.777344 C 33.316406 6.777344 33.367188 6.8125 33.382812 6.851562 C 33.398438 6.894531 33.449219 6.925781 33.5 6.925781 C 33.546875 6.925781 33.617188 6.894531 33.648438 6.851562 C 33.683594 6.8125 33.746094 6.777344 33.789062 6.777344 C 33.875 6.777344 34.449219 6.433594 34.449219 6.382812 C 34.449219 6.234375 35.03125 5.867188 35.21875 5.894531 C 35.632812 5.960938 36.457031 6.707031 36.398438 6.964844 C 36.324219 7.296875 36.351562 7.292969 34.628906 7.261719 C 32.480469 7.21875 32.519531 7.183594 32.613281 9.238281 C 32.625 9.511719 32.625 9.511719 32.46875 9.527344 C 32.296875 9.546875 32.222656 9.78125 32.097656 10.691406 C 32.070312 10.898438 32 11.261719 31.941406 11.496094 C 31.8125 12.003906 31.839844 12.285156 32.015625 12.324219 C 32.695312 12.46875 32.722656 12.402344 32.722656 10.5 L 32.726562 9.027344 L 32.894531 8.875 L 33.0625 8.726562 L 33.65625 8.742188 L 34.246094 8.761719 L 34.574219 9.089844 L 34.589844 10.261719 C 34.609375 11.613281 34.578125 11.535156 35.097656 11.589844 C 35.34375 11.617188 35.492188 11.660156 35.585938 11.738281 C 35.664062 11.796875 35.875 11.925781 36.058594 12.019531 C 36.371094 12.183594 36.394531 12.207031 36.425781 12.40625 C 36.484375 12.742188 36.375 12.800781 35.691406 12.800781 C 34.558594 12.800781 34.523438 12.828125 34.523438 13.832031 C 34.523438 14.789062 34.503906 14.753906 35.167969 14.777344 C 36.003906 14.804688 35.976562 14.882812 34.929688 15.523438 C 34.503906 15.78125 34.507812 15.75 34.503906 17.859375 C 34.5 20.261719 34.597656 20.089844 33.21875 20.070312 L 32.285156 20.054688 L 32.179688 19.914062 C 32.082031 19.78125 32.074219 19.695312 32.050781 18.542969 C 32.019531 17.015625 31.960938 16.9375 31.160156 17.335938 C 30.496094 17.671875 30.214844 17.609375 29.855469 17.054688 C 29.742188 16.882812 29.605469 16.683594 29.550781 16.617188 C 29.222656 16.203125 29.40625 15.925781 30.082031 15.816406 C 30.289062 15.78125 30.53125 15.726562 30.617188 15.6875 C 30.703125 15.652344 30.945312 15.597656 31.148438 15.566406 C 32.046875 15.425781 32.074219 15.375 32.042969 14.003906 C 32.015625 12.832031 31.96875 12.78125 31.015625 12.835938 C 29.527344 12.917969 29.523438 12.910156 29.941406 10.539062 C 30.082031 9.75 30.242188 8.757812 30.300781 8.332031 L 30.40625 7.554688 L 30.277344 7.445312 C 30.207031 7.382812 30.058594 7.304688 29.949219 7.273438 C 29.714844 7.203125 29.710938 7.183594 29.878906 6.980469 C 29.972656 6.871094 30.054688 6.828125 30.160156 6.828125 C 30.332031 6.828125 30.582031 6.605469 30.617188 6.417969 C 31.050781 4.148438 30.957031 4.28125 32.113281 4.273438 L 32.796875 4.265625 L 32.957031 4.410156 M 97.589844 4.386719 C 98.242188 4.71875 98.566406 5.195312 98.300781 5.433594 L 98.136719 5.582031 L 97.15625 5.5625 C 96.570312 5.546875 96.117188 5.515625 96.035156 5.480469 C 95.941406 5.441406 95.496094 5.421875 94.675781 5.421875 L 93.457031 5.421875 L 93.277344 5.632812 C 93.03125 5.921875 93.046875 5.726562 93.0625 8.753906 L 93.074219 11.460938 L 93.214844 11.566406 C 93.351562 11.667969 93.417969 11.671875 95.085938 11.6875 C 97.046875 11.703125 96.925781 11.722656 97.511719 11.277344 C 98.230469 10.734375 98.707031 10.816406 99.242188 11.566406 C 99.621094 12.089844 99.558594 12.101562 96.246094 12.0625 C 93.691406 12.035156 93.507812 12.039062 93.367188 12.121094 C 93.058594 12.304688 93.078125 12.089844 93.050781 16.164062 C 93.023438 20.078125 93.023438 20.058594 92.808594 20.175781 C 92.636719 20.269531 91.042969 20.261719 90.867188 20.167969 C 90.621094 20.035156 90.625 20.097656 90.601562 16.191406 C 90.570312 12.011719 90.589844 12.207031 90.210938 12.101562 C 90.09375 12.066406 89.042969 12.046875 87.332031 12.046875 C 84.957031 12.046875 84.621094 12.039062 84.46875 11.96875 C 83.976562 11.730469 84.359375 11.695312 87.457031 11.695312 C 90.46875 11.695312 90.421875 11.699219 90.527344 11.492188 C 90.664062 11.222656 90.632812 6.042969 90.492188 5.75 C 90.328125 5.417969 90.355469 5.421875 87.894531 5.421875 C 85.839844 5.421875 85.691406 5.414062 85.546875 5.328125 L 85.394531 5.234375 L 85.535156 5.191406 C 85.613281 5.171875 87.96875 5.148438 90.773438 5.144531 C 95.382812 5.140625 95.894531 5.132812 96.0625 5.058594 C 96.242188 4.976562 96.539062 4.769531 96.800781 4.53125 C 96.898438 4.445312 97.171875 4.3125 97.339844 4.269531 C 97.347656 4.269531 97.460938 4.320312 97.589844 4.386719 M 80.425781 4.519531 C 80.746094 4.71875 80.726562 4.234375 80.726562 11.617188 C 80.726562 19.171875 80.746094 18.707031 80.363281 19.132812 C 79.773438 19.785156 79.347656 19.875 78.664062 19.492188 C 77.679688 18.933594 77.449219 18.789062 77.253906 18.617188 L 77.046875 18.4375 L 77.21875 18.355469 C 77.3125 18.308594 77.535156 18.257812 77.707031 18.242188 C 78.394531 18.171875 78.363281 18.300781 78.339844 15.722656 L 78.324219 13.796875 L 78.15625 13.648438 L 77.992188 13.496094 L 77.183594 13.511719 C 75.898438 13.539062 76 13.273438 76 16.546875 L 76 18.875 L 75.855469 19.039062 L 75.707031 19.203125 L 74.992188 19.21875 C 74.09375 19.238281 73.886719 19.210938 73.683594 19.027344 L 73.523438 18.882812 L 73.476562 13.742188 L 73.332031 13.636719 C 73.203125 13.535156 73.128906 13.527344 72.324219 13.527344 C 71.253906 13.527344 71.21875 13.546875 71.167969 14.132812 C 71.042969 15.578125 70.382812 17.121094 69.480469 18.066406 C 68.582031 19.003906 67.296875 19.714844 67.066406 19.398438 C 66.96875 19.265625 66.976562 19.242188 67.253906 18.773438 C 68.109375 17.335938 68.367188 16.601562 68.578125 14.960938 C 68.648438 14.425781 68.660156 13.632812 68.667969 9.613281 C 68.679688 4.390625 68.660156 4.710938 68.992188 4.5 C 69.214844 4.363281 80.203125 4.378906 80.425781 4.519531 M 43.195312 5.195312 C 44.042969 6.175781 44.046875 6.234375 43.378906 7.253906 C 43.214844 7.503906 42.96875 7.859375 42.828125 8.042969 C 42.199219 8.878906 42.210938 9.003906 42.976562 9.265625 C 43.960938 9.609375 44.835938 10.125 45 10.464844 L 45.101562 10.679688 L 44.988281 10.878906 C 44.769531 11.261719 44.042969 12.035156 43.785156 12.15625 L 43.546875 12.265625 L 43.347656 12.070312 C 43.238281 11.964844 43.089844 11.761719 43.023438 11.621094 C 42.894531 11.363281 42.730469 11.117188 42.242188 10.449219 C 41.6875 9.695312 41.507812 9.597656 41.160156 9.851562 C 40.472656 10.359375 39.890625 10.75 39.5625 10.929688 C 38.824219 11.328125 38.152344 11.644531 37.914062 11.703125 C 37.78125 11.734375 37.613281 11.792969 37.539062 11.828125 C 37.238281 11.980469 36.949219 11.90625 37.128906 11.722656 C 37.195312 11.65625 37.25 11.570312 37.25 11.535156 C 37.25 11.464844 37.582031 11.128906 37.898438 10.871094 C 38.125 10.6875 38.902344 9.847656 39.082031 9.589844 C 39.160156 9.480469 39.417969 9.132812 39.652344 8.824219 C 40.058594 8.28125 40.515625 7.582031 40.746094 7.152344 C 40.804688 7.042969 40.9375 6.816406 41.039062 6.652344 C 41.527344 5.871094 41.34375 5.28125 40.664062 5.464844 C 40.496094 5.511719 40.394531 5.507812 40.164062 5.445312 C 39.917969 5.382812 39.785156 5.378906 39.273438 5.429688 C 38.839844 5.472656 38.597656 5.476562 38.40625 5.4375 C 38.246094 5.40625 38.066406 5.402344 37.957031 5.425781 C 37.601562 5.511719 37.328125 5.484375 37.203125 5.351562 L 37.09375 5.230469 L 37.285156 5.203125 C 37.390625 5.1875 38.339844 5.175781 39.398438 5.179688 C 41.65625 5.1875 41.617188 5.191406 42.050781 4.765625 L 42.355469 4.464844 L 42.558594 4.578125 C 42.671875 4.640625 42.957031 4.917969 43.195312 5.195312 M 71.816406 4.664062 C 71.757812 4.691406 71.691406 4.742188 71.667969 4.78125 C 71.644531 4.816406 71.5625 4.875 71.488281 4.90625 C 71.203125 5.03125 71.195312 5.105469 71.210938 7.003906 C 71.230469 9.167969 71.113281 8.960938 72.289062 8.960938 C 73.59375 8.960938 73.5 9.125 73.5 6.859375 C 73.5 5.152344 73.46875 4.917969 73.230469 4.917969 C 73.195312 4.917969 73.109375 4.878906 73.042969 4.828125 C 72.976562 4.773438 72.800781 4.71875 72.648438 4.703125 C 72.5 4.6875 72.273438 4.660156 72.148438 4.644531 C 72.027344 4.632812 71.875 4.640625 71.816406 4.664062 M 76.625 4.730469 C 76.542969 4.761719 76.375 4.882812 76.25 5 L 76.023438 5.21875 L 76.007812 6.710938 C 75.984375 9.097656 75.933594 9.003906 77.246094 8.976562 C 78.046875 8.960938 78.046875 8.960938 78.1875 8.820312 L 78.324219 8.683594 L 78.339844 7.0625 C 78.359375 4.945312 78.289062 4.75 77.507812 4.738281 C 77.324219 4.738281 77.085938 4.722656 76.976562 4.703125 C 76.863281 4.6875 76.707031 4.699219 76.625 4.730469 M 17.699219 4.765625 C 17.945312 4.902344 17.949219 4.976562 17.949219 8.613281 C 17.949219 12.230469 17.949219 12.265625 17.707031 12.394531 C 17.636719 12.433594 16.507812 12.449219 14.078125 12.449219 C 10.328125 12.449219 10.246094 12.445312 10.183594 12.214844 C 10.109375 11.933594 10.101562 11.824219 10.160156 11.636719 C 10.261719 11.285156 10.167969 11.296875 13.511719 11.292969 L 16.476562 11.292969 L 16.625 11.175781 L 16.773438 11.054688 L 16.792969 9.761719 C 16.816406 7.886719 16.957031 8.03125 15.089844 8.03125 L 13.699219 8.03125 L 13.597656 7.867188 C 13.460938 7.644531 13.464844 7.238281 13.601562 7.058594 L 13.707031 6.925781 L 16.488281 6.925781 L 16.613281 6.800781 C 16.820312 6.59375 16.867188 6.425781 16.777344 6.210938 C 16.625 5.847656 16.988281 5.871094 11.769531 5.886719 L 7.074219 5.898438 L 6.957031 6.140625 C 6.839844 6.375 6.839844 6.382812 6.921875 6.605469 C 7.046875 6.925781 7.046875 6.925781 8.539062 6.925781 L 9.882812 6.925781 L 9.996094 7.050781 C 10.15625 7.222656 10.167969 7.664062 10.019531 7.863281 L 9.914062 8.007812 L 8.503906 8.03125 L 7.09375 8.058594 L 7 8.179688 C 6.863281 8.363281 6.851562 8.707031 6.976562 8.929688 L 7.078125 9.113281 L 9.921875 9.160156 L 10.035156 9.332031 C 10.222656 9.609375 10.117188 10.230469 9.882812 10.246094 C 9.851562 10.246094 9.207031 10.25 8.453125 10.257812 L 7.082031 10.265625 L 6.984375 10.433594 C 6.898438 10.578125 6.882812 10.707031 6.878906 11.339844 C 6.875 11.816406 6.847656 12.113281 6.808594 12.1875 C 6.652344 12.46875 6.0625 12.550781 5.847656 12.320312 L 5.726562 12.191406 L 5.710938 8.742188 C 5.695312 5.089844 5.695312 5.050781 5.855469 4.847656 L 5.957031 4.71875 L 11.78125 4.71875 C 15.453125 4.71875 17.640625 4.738281 17.699219 4.765625 M 96.601562 6.839844 C 97.308594 7.53125 97.527344 7.886719 97.429688 8.171875 C 97.292969 8.558594 96.632812 9.332031 96.070312 9.757812 C 95.957031 9.84375 95.742188 10.007812 95.59375 10.125 C 94.425781 11.03125 93.984375 10.921875 94.507812 9.867188 C 94.804688 9.273438 95.476562 7.558594 95.625 7.023438 C 95.796875 6.394531 96.089844 6.339844 96.601562 6.839844 M 87.144531 6.925781 C 88.113281 7.28125 89.648438 8.746094 89.648438 9.3125 C 89.648438 9.734375 88.648438 10.84375 88.269531 10.84375 C 87.980469 10.84375 87.90625 10.710938 87.496094 9.464844 C 87.441406 9.300781 87.34375 9.039062 87.277344 8.886719 C 87.210938 8.734375 87.015625 8.273438 86.84375 7.859375 L 86.535156 7.113281 L 86.691406 6.96875 C 86.78125 6.890625 86.855469 6.828125 86.863281 6.828125 C 86.871094 6.828125 86.996094 6.871094 87.144531 6.925781 M 61.648438 8.898438 C 62.410156 9.628906 62.921875 10.257812 62.972656 10.515625 C 63.003906 10.683594 62.699219 11.582031 62.476562 11.972656 C 62.410156 12.082031 62.34375 12.230469 62.324219 12.300781 C 62.265625 12.5 61.429688 14.152344 61.207031 14.507812 C 61.09375 14.6875 60.925781 14.964844 60.828125 15.121094 C 60.734375 15.277344 60.546875 15.550781 60.414062 15.722656 C 60.277344 15.898438 60.09375 16.152344 60 16.289062 C 59.761719 16.640625 59.261719 17.253906 59.019531 17.492188 C 58.910156 17.605469 58.765625 17.777344 58.707031 17.878906 L 58.597656 18.058594 L 58.738281 18.152344 C 58.859375 18.238281 58.980469 18.246094 59.949219 18.246094 C 61.164062 18.246094 61.164062 18.246094 61.648438 17.847656 C 62.125 17.453125 62.394531 17.363281 62.667969 17.503906 C 63.023438 17.6875 63.414062 18.003906 63.503906 18.183594 C 63.632812 18.429688 63.625 18.460938 63.445312 18.570312 C 63.226562 18.703125 51.050781 18.675781 50.734375 18.539062 L 50.542969 18.457031 L 50.683594 18.375 C 50.808594 18.308594 51.269531 18.292969 54.300781 18.273438 C 58.445312 18.242188 58.140625 18.320312 58.457031 17.195312 C 58.511719 17 58.597656 16.773438 58.648438 16.691406 C 58.699219 16.609375 58.882812 16.125 59.050781 15.613281 C 59.222656 15.101562 59.378906 14.660156 59.398438 14.632812 C 59.421875 14.605469 59.453125 14.492188 59.472656 14.382812 C 59.492188 14.273438 59.582031 13.988281 59.671875 13.753906 C 59.761719 13.519531 59.863281 13.179688 59.894531 13.003906 C 59.929688 12.824219 60.023438 12.460938 60.101562 12.199219 C 60.316406 11.5 60.628906 10.203125 60.804688 9.289062 C 60.894531 8.828125 61.007812 8.691406 61.351562 8.640625 C 61.363281 8.636719 61.5 8.753906 61.648438 8.898438 M 14.375 9.160156 C 14.792969 9.332031 14.753906 10.054688 14.316406 10.222656 C 13.832031 10.40625 13.5 10.195312 13.5 9.695312 C 13.5 9.148438 13.84375 8.9375 14.375 9.160156 M 55.441406 9.238281 C 55.640625 9.238281 56.972656 10.699219 57.679688 11.703125 C 58.460938 12.800781 58.558594 12.964844 59.070312 14.054688 C 59.15625 14.234375 59.054688 14.371094 58.199219 15.253906 C 57.183594 16.300781 57.058594 16.285156 56.820312 15.085938 C 56.75 14.730469 56.683594 14.417969 56.667969 14.394531 C 56.652344 14.371094 56.554688 14.019531 56.453125 13.613281 C 56.21875 12.710938 56.023438 12.074219 55.726562 11.21875 C 55.597656 10.859375 55.433594 10.386719 55.359375 10.164062 C 55.28125 9.945312 55.195312 9.714844 55.160156 9.65625 C 55.027344 9.414062 55.109375 9.050781 55.265625 9.164062 C 55.324219 9.203125 55.402344 9.238281 55.441406 9.238281 M 71.585938 9.347656 C 71.242188 9.441406 71.226562 9.507812 71.210938 11.179688 C 71.1875 13.15625 71.1875 13.152344 72.316406 13.152344 C 73.488281 13.152344 73.5 13.136719 73.5 11.265625 C 73.5 9.632812 73.480469 9.519531 73.175781 9.382812 C 72.949219 9.277344 71.933594 9.253906 71.585938 9.347656 M 76.328125 9.382812 C 76.035156 9.582031 76.027344 9.632812 76.007812 11.164062 C 75.992188 12.722656 75.996094 12.75 76.304688 13 L 76.503906 13.160156 L 77.222656 13.144531 C 78.351562 13.117188 78.351562 13.121094 78.347656 11.234375 C 78.347656 9.304688 78.375 9.351562 77.214844 9.308594 C 76.527344 9.28125 76.464844 9.285156 76.328125 9.382812 M 52.632812 10.640625 C 52.726562 10.726562 52.820312 10.792969 52.84375 10.792969 C 52.910156 10.792969 54.175781 12.3125 54.613281 12.917969 C 55.125 13.628906 55.648438 14.480469 55.871094 14.976562 C 56.117188 15.519531 56.042969 15.664062 54.9375 16.835938 L 54.375 17.429688 L 54.203125 17.3125 C 53.992188 17.167969 53.902344 16.890625 53.753906 15.964844 C 53.699219 15.621094 53.601562 15.179688 53.535156 14.984375 C 53.46875 14.792969 53.398438 14.542969 53.382812 14.433594 C 53.363281 14.324219 53.28125 14.039062 53.203125 13.804688 C 53.125 13.570312 52.953125 13.039062 52.824219 12.625 C 52.695312 12.210938 52.554688 11.78125 52.511719 11.671875 C 52.296875 11.101562 52.253906 10.953125 52.25 10.789062 C 52.25 10.46875 52.378906 10.417969 52.632812 10.640625 M 43.988281 13.28125 C 44.4375 13.746094 44.453125 13.789062 44.289062 13.941406 C 44.074219 14.136719 43.976562 14.152344 43.1875 14.152344 C 41.984375 14.152344 42.089844 13.921875 42.0625 16.664062 L 42.039062 18.800781 L 42.160156 18.976562 C 42.367188 19.277344 42.878906 19.175781 43.328125 18.75 C 43.796875 18.304688 44.09375 18.324219 44.707031 18.839844 C 45.070312 19.148438 45.105469 19.226562 44.976562 19.472656 C 44.871094 19.683594 45.070312 19.671875 40.726562 19.675781 C 36.71875 19.679688 36.441406 19.671875 36.472656 19.5625 C 36.484375 19.527344 36.503906 19.441406 36.523438 19.363281 L 36.550781 19.226562 L 39.292969 19.226562 L 39.550781 18.890625 L 39.550781 14.472656 L 39.414062 14.292969 C 39.238281 14.066406 39.132812 14.046875 38.136719 14.0625 C 37.351562 14.074219 37.332031 14.074219 37.242188 13.957031 C 37.058594 13.730469 37.054688 13.730469 39.605469 13.703125 L 42.023438 13.679688 L 42.234375 13.554688 C 42.347656 13.484375 42.605469 13.285156 42.800781 13.113281 C 43.300781 12.671875 43.410156 12.6875 43.988281 13.28125 M 9.988281 13.628906 C 10.152344 13.835938 10.171875 14.132812 10.039062 14.402344 L 9.925781 14.632812 L 8.53125 14.648438 C 7.253906 14.660156 7.125 14.652344 7.035156 14.570312 C 6.773438 14.339844 6.75 13.867188 6.988281 13.628906 L 7.113281 13.503906 L 9.894531 13.503906 L 9.988281 13.628906 M 115.484375 13.761719 C 115.761719 13.863281 115.765625 13.898438 115.789062 16.871094 C 115.820312 20.796875 115.917969 20.5 114.570312 20.523438 L 113.640625 20.539062 L 113.410156 20.320312 C 113.03125 19.964844 113.0625 19.96875 110.058594 19.988281 L 107.402344 20.003906 L 107.191406 20.210938 C 106.863281 20.527344 106.839844 20.53125 105.914062 20.53125 C 104.585938 20.53125 104.703125 20.863281 104.695312 17.109375 C 104.6875 14.015625 104.6875 14.023438 104.902344 13.828125 C 105.058594 13.6875 115.109375 13.621094 115.484375 13.761719 M 110.125 14.054688 C 107.355469 14.082031 107.421875 14.078125 107.265625 14.371094 C 107.121094 14.648438 107.132812 19.128906 107.277344 19.378906 L 107.378906 19.554688 L 110.117188 19.570312 C 112.839844 19.582031 112.855469 19.582031 113.027344 19.476562 C 113.304688 19.304688 113.300781 19.351562 113.300781 16.8125 L 113.300781 14.441406 L 113.0625 14.222656 C 112.933594 14.105469 112.792969 14.011719 112.75 14.015625 C 112.710938 14.023438 111.527344 14.039062 110.125 14.054688 M 3.757812 19.0625 C 3.398438 19.132812 3.378906 21.003906 3.734375 21.160156 C 4.203125 21.367188 5.492188 21.207031 5.636719 20.929688 C 5.703125 20.800781 5.726562 19.667969 5.667969 19.378906 C 5.609375 19.078125 4.574219 18.90625 3.757812 19.0625 "/>
</g>
</svg>
